<svg width="34" height="40" viewBox="0 0 34 40" fill="none" xmlns="http://www.w3.org/2000/svg">
<path d="M14.0808 0.584953V1.31738C14.0808 2.02588 14.2367 2.72571 14.5374 3.36723C15.0189 4.39435 15.8526 5.22197 16.8814 5.6999C17.5227 5.99781 18.2249 6.15385 18.932 6.15385H26.5606C27.0546 6.15385 27.5475 6.1981 28.0336 6.28607L28.1984 6.3159C28.8574 6.43518 29.4962 6.6472 30.0958 6.94563L30.1928 6.99388C30.6684 7.23061 31.1119 7.52704 31.5125 7.87599C32.0227 8.32038 32.4573 8.8447 32.7993 9.42846L32.9241 9.64142C33.2961 10.2761 33.5758 10.9605 33.755 11.6739L33.7611 11.6982C33.9198 12.3301 34 12.979 34 13.6304V15.1208C34 15.8636 33.9085 16.6037 33.7276 17.3242L33.6404 17.6713C33.537 18.0829 33.3887 18.4819 33.1983 18.8612C32.8214 19.6114 32.2861 20.2709 31.6294 20.7939L31.5298 20.8732C31.1176 21.2015 30.6663 21.4774 30.1862 21.6946L29.5912 21.9639C29.2131 22.135 28.8096 22.2432 28.3966 22.2843L27.4242 22.3811C27.345 22.389 27.2652 22.3743 27.194 22.3389C27.0504 22.2674 26.9596 22.1208 26.9596 21.9604V18.8034V16.8064C26.9596 16.4318 26.8878 16.0607 26.7482 15.7131C26.6605 15.4949 26.5469 15.288 26.4098 15.097L26.229 14.845C25.9178 14.4113 25.5243 14.0429 25.071 13.7609L25.0106 13.7233C24.5968 13.4658 24.1364 13.2923 23.6556 13.2125C23.4546 13.1792 23.2511 13.1624 23.0473 13.1624L7.0404 13.1624L7.0404 28.895C7.0404 29.2318 7.07743 29.5676 7.15081 29.8963L7.22214 30.2158C7.32852 30.6924 7.5429 31.1381 7.84875 31.5187C7.99627 31.7022 8.16366 31.8689 8.34787 32.0156L8.40077 32.0577C8.75037 32.3362 9.14638 32.5507 9.57056 32.6914L9.7392 32.7474C10.2264 32.909 10.7364 32.9915 11.2497 32.9915H12.1919H22.8248C23.1767 32.9915 23.528 32.9625 23.8752 32.9049L24.4477 32.8099C25.0828 32.7046 25.6833 32.4486 26.1991 32.0635C26.5884 31.7729 26.922 31.4142 27.1836 31.0048L27.9899 29.7436L28.3239 29.328C29.0061 28.4791 29.8909 27.8155 30.8968 27.3983C31.2478 27.2527 31.6108 27.1382 31.9818 27.0562L32.8293 26.8687C32.9226 26.848 33.0179 26.8376 33.1135 26.8376H33.4151C33.5697 26.8376 33.7181 26.8989 33.8277 27.008C33.938 27.1178 34 27.267 34 27.4226V33.5043L33.9434 33.9548C33.8671 34.5628 33.7013 35.1562 33.4515 35.7157C33.2455 36.177 32.9842 36.6115 32.6731 37.0096L32.4859 37.2492C32.1232 37.7135 31.7002 38.1273 31.2281 38.4798C30.7882 38.8082 30.3092 39.0808 29.802 39.2911L29.6391 39.3587C28.8874 39.6705 28.0928 39.8664 27.2823 39.9397L26.6162 40H7.35854C6.91838 40 6.47655 39.9601 6.04343 39.8817C5.22897 39.7343 4.44056 39.4491 3.72112 39.0398L3.65358 39.0014C2.82928 38.5325 2.10966 37.8999 1.53901 37.1424C1.08835 36.5443 0.737343 35.8772 0.499547 35.1671L0.458393 35.0442C0.267921 34.4753 0.144163 33.8863 0.089608 33.2889L0 32.3077L0 20.3444C0 19.8878 0.0412708 19.4322 0.123308 18.983L0.156281 18.8025C0.280245 18.1237 0.512432 17.4694 0.843968 16.8643C1.1946 16.2244 1.6514 15.6487 2.19486 15.1618L2.4281 14.9528C2.86797 14.5587 3.35887 14.2256 3.88759 13.9624C4.49755 13.6588 5.15095 13.4518 5.82444 13.3486L7.0404 13.1624V7.31711C7.0404 6.77064 7.0898 6.22529 7.18798 5.68771L7.25003 5.348C7.33892 4.86134 7.48655 4.38533 7.68823 3.93359C7.94111 3.36719 8.27898 2.83998 8.68849 2.37408C9.076 1.93322 9.52446 1.54994 10.0203 1.23583L10.5678 0.889015C10.9622 0.639157 11.3857 0.43847 11.8288 0.291425L12.432 0.0912676C12.6142 0.0308146 12.8049 0 12.9969 0L13.4959 0C13.6505 0 13.7989 0.0612653 13.9085 0.170392C14.0188 0.280167 14.0808 0.429354 14.0808 0.584953Z" fill="#FFCC00"/>
</svg>
