<svg width="161" height="161" viewBox="0 0 161 161" fill="none" xmlns="http://www.w3.org/2000/svg">
<path d="M80.5 0C36.0439 0 0 36.0439 0 80.5C0 124.956 36.0439 161 80.5 161C124.956 161 161 124.956 161 80.5C161 36.0439 124.956 0 80.5 0ZM117.792 58.2317L79.2321 117.168C79.2221 117.178 79.2019 117.188 79.2019 117.198C79.0007 117.5 78.89 117.842 78.6384 118.124C78.2862 118.506 77.8334 118.707 77.4309 118.999C77.3303 119.07 77.2297 119.15 77.119 119.22C76.4951 119.613 75.8511 119.875 75.1468 120.046C74.9153 120.106 74.704 120.166 74.4625 120.207C73.902 120.284 73.3341 120.29 72.772 120.227C72.3749 120.202 71.9809 120.141 71.5947 120.046C71.1962 119.925 70.809 119.771 70.4375 119.583C70.1155 119.432 69.7734 119.392 69.4715 119.2C69.2501 119.059 69.1294 118.838 68.9382 118.667C68.8577 118.597 68.7571 118.576 68.6766 118.506L46.2271 97.7471C44.8964 96.4694 44.1201 94.7206 44.0651 92.8766C44.01 91.0327 44.6806 89.2407 45.9326 87.8858C47.1847 86.531 48.9183 85.7214 50.7609 85.6311C52.6035 85.5408 54.408 86.1769 55.7865 87.4029L72.0374 102.436L105.998 50.5238C107.021 48.9599 108.622 47.8661 110.451 47.4831C112.279 47.1 114.185 47.459 115.749 48.4811C117.313 49.5033 118.407 51.1048 118.79 52.9334C119.173 54.7619 118.814 56.6678 117.792 58.2317Z" fill="#25830B"/>
</svg>
